<mxfile>
    <diagram id="K1PiYW7plfjryU15QX6y" name="Page-1">
        <mxGraphModel dx="627" dy="880" grid="1" gridSize="10" guides="1" tooltips="1" connect="1" arrows="1" fold="1" page="1" pageScale="1" pageWidth="827" pageHeight="1169" math="0" shadow="0">
            <root>
                <mxCell id="0"/>
                <mxCell id="1" parent="0"/>
                <mxCell id="3" value="Questão 21" style="text;strokeColor=none;fillColor=none;html=1;fontSize=24;fontStyle=1;verticalAlign=middle;align=center;" parent="1" vertex="1">
                    <mxGeometry x="240" y="40" width="348" height="40" as="geometry"/>
                </mxCell>
                <mxCell id="160" value="&lt;h2&gt;Invente nomes para os relacionamentos da Figura.&lt;/h2&gt;" style="text;strokeColor=none;fillColor=none;align=left;verticalAlign=middle;whiteSpace=wrap;rounded=0;html=1;" parent="1" vertex="1">
                    <mxGeometry x="80" y="720" width="680" height="40" as="geometry"/>
                </mxCell>
                <mxCell id="163" value="(0,n)" style="edgeStyle=orthogonalEdgeStyle;rounded=0;orthogonalLoop=1;jettySize=auto;html=1;endArrow=none;endFill=0;verticalAlign=bottom;" parent="1" source="161" target="162" edge="1">
                    <mxGeometry relative="1" as="geometry"/>
                </mxCell>
                <mxCell id="161" value="FORNECEDOR" style="whiteSpace=wrap;html=1;" parent="1" vertex="1">
                    <mxGeometry x="120" y="120" width="120" height="40" as="geometry"/>
                </mxCell>
                <mxCell id="165" value="(1,n)" style="edgeStyle=orthogonalEdgeStyle;rounded=0;orthogonalLoop=1;jettySize=auto;html=1;endArrow=none;endFill=0;verticalAlign=bottom;" parent="1" source="162" target="164" edge="1">
                    <mxGeometry relative="1" as="geometry"/>
                </mxCell>
                <mxCell id="162" value="" style="rhombus;whiteSpace=wrap;html=1;" parent="1" vertex="1">
                    <mxGeometry x="320" y="120" width="80" height="40" as="geometry"/>
                </mxCell>
                <mxCell id="176" value="(1,1)" style="edgeStyle=orthogonalEdgeStyle;rounded=0;orthogonalLoop=1;jettySize=auto;html=1;endArrow=none;endFill=0;labelPosition=right;verticalLabelPosition=middle;align=left;verticalAlign=middle;spacing=10;" parent="1" source="164" target="166" edge="1">
                    <mxGeometry relative="1" as="geometry"/>
                </mxCell>
                <mxCell id="164" value="FABRICANTE" style="whiteSpace=wrap;html=1;" parent="1" vertex="1">
                    <mxGeometry x="480" y="120" width="120" height="40" as="geometry"/>
                </mxCell>
                <mxCell id="166" value="" style="rhombus;whiteSpace=wrap;html=1;" parent="1" vertex="1">
                    <mxGeometry x="500" y="200" width="80" height="40" as="geometry"/>
                </mxCell>
                <mxCell id="172" value="(1,n)" style="edgeStyle=orthogonalEdgeStyle;rounded=0;orthogonalLoop=1;jettySize=auto;html=1;endArrow=none;endFill=0;verticalAlign=bottom;" parent="1" source="168" target="171" edge="1">
                    <mxGeometry relative="1" as="geometry"/>
                </mxCell>
                <mxCell id="178" value="(0,n)" style="edgeStyle=orthogonalEdgeStyle;rounded=0;orthogonalLoop=1;jettySize=auto;html=1;endArrow=none;endFill=0;labelPosition=right;verticalLabelPosition=middle;align=left;verticalAlign=middle;spacing=10;" parent="1" source="168" target="166" edge="1">
                    <mxGeometry relative="1" as="geometry"/>
                </mxCell>
                <mxCell id="181" value="" style="edgeStyle=orthogonalEdgeStyle;rounded=0;orthogonalLoop=1;jettySize=auto;html=1;endArrow=none;endFill=0;" parent="1" source="168" target="180" edge="1">
                    <mxGeometry relative="1" as="geometry"/>
                </mxCell>
                <mxCell id="168" value="PRODUTO" style="whiteSpace=wrap;html=1;" parent="1" vertex="1">
                    <mxGeometry x="480" y="280" width="120" height="40" as="geometry"/>
                </mxCell>
                <mxCell id="174" value="(0,n)" style="edgeStyle=orthogonalEdgeStyle;rounded=0;orthogonalLoop=1;jettySize=auto;html=1;endArrow=none;endFill=0;labelPosition=right;verticalLabelPosition=middle;align=left;verticalAlign=middle;spacing=10;" parent="1" source="169" target="170" edge="1">
                    <mxGeometry relative="1" as="geometry"/>
                </mxCell>
                <mxCell id="169" value="LOTE" style="whiteSpace=wrap;html=1;" parent="1" vertex="1">
                    <mxGeometry x="120" y="280" width="120" height="40" as="geometry"/>
                </mxCell>
                <mxCell id="175" value="(1,1)" style="edgeStyle=orthogonalEdgeStyle;rounded=0;orthogonalLoop=1;jettySize=auto;html=1;endArrow=none;endFill=0;labelPosition=right;verticalLabelPosition=middle;align=left;verticalAlign=middle;spacing=10;" parent="1" source="170" target="161" edge="1">
                    <mxGeometry relative="1" as="geometry"/>
                </mxCell>
                <mxCell id="170" value="" style="rhombus;whiteSpace=wrap;html=1;" parent="1" vertex="1">
                    <mxGeometry x="140" y="200" width="80" height="40" as="geometry"/>
                </mxCell>
                <mxCell id="173" value="(0,n)" style="edgeStyle=orthogonalEdgeStyle;rounded=0;orthogonalLoop=1;jettySize=auto;html=1;endArrow=none;endFill=0;verticalAlign=bottom;" parent="1" source="171" target="169" edge="1">
                    <mxGeometry relative="1" as="geometry"/>
                </mxCell>
                <mxCell id="171" value="" style="rhombus;whiteSpace=wrap;html=1;" parent="1" vertex="1">
                    <mxGeometry x="320" y="280" width="80" height="40" as="geometry"/>
                </mxCell>
                <mxCell id="184" style="edgeStyle=none;rounded=0;orthogonalLoop=1;jettySize=auto;html=1;endArrow=none;endFill=0;" parent="1" source="180" target="182" edge="1">
                    <mxGeometry relative="1" as="geometry"/>
                </mxCell>
                <mxCell id="185" style="edgeStyle=none;rounded=0;orthogonalLoop=1;jettySize=auto;html=1;endArrow=none;endFill=0;" parent="1" source="180" target="183" edge="1">
                    <mxGeometry relative="1" as="geometry"/>
                </mxCell>
                <mxCell id="180" value="" style="triangle;whiteSpace=wrap;html=1;direction=north;" parent="1" vertex="1">
                    <mxGeometry x="510" y="360" width="60" height="40" as="geometry"/>
                </mxCell>
                <mxCell id="182" value="MEDICAMENTO" style="whiteSpace=wrap;html=1;" parent="1" vertex="1">
                    <mxGeometry x="400" y="440" width="120" height="40" as="geometry"/>
                </mxCell>
                <mxCell id="183" value="PERFUMARIA" style="whiteSpace=wrap;html=1;" parent="1" vertex="1">
                    <mxGeometry x="560" y="440" width="120" height="40" as="geometry"/>
                </mxCell>
                <mxCell id="189" value="(0,n)" style="edgeStyle=none;rounded=0;orthogonalLoop=1;jettySize=auto;html=1;endArrow=none;endFill=0;align=left;labelPosition=right;verticalLabelPosition=middle;verticalAlign=middle;spacing=10;" parent="1" source="186" target="182" edge="1">
                    <mxGeometry relative="1" as="geometry"/>
                </mxCell>
                <mxCell id="196" value="(1,n)" style="edgeStyle=none;rounded=0;orthogonalLoop=1;jettySize=auto;html=1;endArrow=none;endFill=0;verticalAlign=top;" parent="1" source="186" target="194" edge="1">
                    <mxGeometry relative="1" as="geometry"/>
                </mxCell>
                <mxCell id="186" value="" style="shape=associativeEntity;whiteSpace=wrap;html=1;align=center;" parent="1" vertex="1">
                    <mxGeometry x="400" y="520" width="120" height="80" as="geometry"/>
                </mxCell>
                <mxCell id="188" value="(0,n)" style="edgeStyle=none;rounded=0;orthogonalLoop=1;jettySize=auto;html=1;endArrow=none;endFill=0;align=left;labelPosition=right;verticalLabelPosition=middle;verticalAlign=middle;spacing=10;" parent="1" source="187" target="183" edge="1">
                    <mxGeometry relative="1" as="geometry"/>
                </mxCell>
                <mxCell id="187" value="" style="rhombus;whiteSpace=wrap;html=1;" parent="1" vertex="1">
                    <mxGeometry x="560" y="520" width="120" height="80" as="geometry"/>
                </mxCell>
                <mxCell id="191" value="(0,n)" style="edgeStyle=none;rounded=0;orthogonalLoop=1;jettySize=auto;html=1;endArrow=none;endFill=0;spacing=10;align=left;" parent="1" source="190" target="187" edge="1">
                    <mxGeometry relative="1" as="geometry"/>
                </mxCell>
                <mxCell id="190" value="VENDA" style="whiteSpace=wrap;html=1;" parent="1" vertex="1">
                    <mxGeometry x="480" y="640" width="120" height="40" as="geometry"/>
                </mxCell>
                <mxCell id="192" value="(0,n)" style="edgeStyle=none;rounded=0;orthogonalLoop=1;jettySize=auto;html=1;endArrow=none;endFill=0;labelPosition=left;verticalLabelPosition=middle;align=right;verticalAlign=middle;spacing=10;" parent="1" source="190" target="186" edge="1">
                    <mxGeometry relative="1" as="geometry"/>
                </mxCell>
                <mxCell id="195" value="(0,1)" style="edgeStyle=none;rounded=0;orthogonalLoop=1;jettySize=auto;html=1;endArrow=none;endFill=0;verticalAlign=top;" parent="1" source="193" target="194" edge="1">
                    <mxGeometry relative="1" as="geometry"/>
                </mxCell>
                <mxCell id="193" value="RECEITA&lt;br&gt;MÉDICA" style="whiteSpace=wrap;html=1;" parent="1" vertex="1">
                    <mxGeometry x="120" y="600" width="120" height="40" as="geometry"/>
                </mxCell>
                <mxCell id="194" value="" style="rhombus;whiteSpace=wrap;html=1;" parent="1" vertex="1">
                    <mxGeometry x="280" y="570" width="80" height="40" as="geometry"/>
                </mxCell>
                <mxCell id="197" value="(0,n)" style="edgeStyle=orthogonalEdgeStyle;rounded=0;orthogonalLoop=1;jettySize=auto;html=1;endArrow=none;endFill=0;verticalAlign=bottom;" edge="1" source="198" target="200" parent="1">
                    <mxGeometry relative="1" as="geometry"/>
                </mxCell>
                <mxCell id="198" value="FORNECEDOR" style="whiteSpace=wrap;html=1;" vertex="1" parent="1">
                    <mxGeometry x="120" y="800" width="120" height="40" as="geometry"/>
                </mxCell>
                <mxCell id="199" value="(1,n)" style="edgeStyle=orthogonalEdgeStyle;rounded=0;orthogonalLoop=1;jettySize=auto;html=1;endArrow=none;endFill=0;verticalAlign=bottom;" edge="1" source="200" target="202" parent="1">
                    <mxGeometry relative="1" as="geometry"/>
                </mxCell>
                <mxCell id="200" value="Abastece" style="rhombus;whiteSpace=wrap;html=1;" vertex="1" parent="1">
                    <mxGeometry x="320" y="800" width="80" height="40" as="geometry"/>
                </mxCell>
                <mxCell id="201" value="(1,1)" style="edgeStyle=orthogonalEdgeStyle;rounded=0;orthogonalLoop=1;jettySize=auto;html=1;endArrow=none;endFill=0;labelPosition=right;verticalLabelPosition=middle;align=left;verticalAlign=middle;spacing=10;" edge="1" source="202" target="203" parent="1">
                    <mxGeometry relative="1" as="geometry"/>
                </mxCell>
                <mxCell id="202" value="FABRICANTE" style="whiteSpace=wrap;html=1;" vertex="1" parent="1">
                    <mxGeometry x="480" y="800" width="120" height="40" as="geometry"/>
                </mxCell>
                <mxCell id="203" value="Abastece" style="rhombus;whiteSpace=wrap;html=1;" vertex="1" parent="1">
                    <mxGeometry x="500" y="880" width="80" height="40" as="geometry"/>
                </mxCell>
                <mxCell id="204" value="(1,n)" style="edgeStyle=orthogonalEdgeStyle;rounded=0;orthogonalLoop=1;jettySize=auto;html=1;endArrow=none;endFill=0;verticalAlign=bottom;" edge="1" source="207" target="213" parent="1">
                    <mxGeometry relative="1" as="geometry"/>
                </mxCell>
                <mxCell id="205" value="(0,n)" style="edgeStyle=orthogonalEdgeStyle;rounded=0;orthogonalLoop=1;jettySize=auto;html=1;endArrow=none;endFill=0;labelPosition=right;verticalLabelPosition=middle;align=left;verticalAlign=middle;spacing=10;" edge="1" source="207" target="203" parent="1">
                    <mxGeometry relative="1" as="geometry"/>
                </mxCell>
                <mxCell id="206" value="" style="edgeStyle=orthogonalEdgeStyle;rounded=0;orthogonalLoop=1;jettySize=auto;html=1;endArrow=none;endFill=0;" edge="1" source="207" target="216" parent="1">
                    <mxGeometry relative="1" as="geometry"/>
                </mxCell>
                <mxCell id="207" value="PRODUTO" style="whiteSpace=wrap;html=1;" vertex="1" parent="1">
                    <mxGeometry x="480" y="960" width="120" height="40" as="geometry"/>
                </mxCell>
                <mxCell id="208" value="(0,n)" style="edgeStyle=orthogonalEdgeStyle;rounded=0;orthogonalLoop=1;jettySize=auto;html=1;endArrow=none;endFill=0;labelPosition=right;verticalLabelPosition=middle;align=left;verticalAlign=middle;spacing=10;" edge="1" source="209" target="211" parent="1">
                    <mxGeometry relative="1" as="geometry"/>
                </mxCell>
                <mxCell id="209" value="LOTE" style="whiteSpace=wrap;html=1;" vertex="1" parent="1">
                    <mxGeometry x="120" y="960" width="120" height="40" as="geometry"/>
                </mxCell>
                <mxCell id="210" value="(1,1)" style="edgeStyle=orthogonalEdgeStyle;rounded=0;orthogonalLoop=1;jettySize=auto;html=1;endArrow=none;endFill=0;labelPosition=right;verticalLabelPosition=middle;align=left;verticalAlign=middle;spacing=10;" edge="1" source="211" target="198" parent="1">
                    <mxGeometry relative="1" as="geometry"/>
                </mxCell>
                <mxCell id="211" value="Abastece" style="rhombus;whiteSpace=wrap;html=1;" vertex="1" parent="1">
                    <mxGeometry x="140" y="880" width="80" height="40" as="geometry"/>
                </mxCell>
                <mxCell id="212" value="(0,n)" style="edgeStyle=orthogonalEdgeStyle;rounded=0;orthogonalLoop=1;jettySize=auto;html=1;endArrow=none;endFill=0;verticalAlign=bottom;" edge="1" source="213" target="209" parent="1">
                    <mxGeometry relative="1" as="geometry"/>
                </mxCell>
                <mxCell id="213" value="Abastece" style="rhombus;whiteSpace=wrap;html=1;" vertex="1" parent="1">
                    <mxGeometry x="320" y="960" width="80" height="40" as="geometry"/>
                </mxCell>
                <mxCell id="214" style="edgeStyle=none;rounded=0;orthogonalLoop=1;jettySize=auto;html=1;endArrow=none;endFill=0;" edge="1" source="216" target="217" parent="1">
                    <mxGeometry relative="1" as="geometry"/>
                </mxCell>
                <mxCell id="215" style="edgeStyle=none;rounded=0;orthogonalLoop=1;jettySize=auto;html=1;endArrow=none;endFill=0;" edge="1" source="216" target="218" parent="1">
                    <mxGeometry relative="1" as="geometry"/>
                </mxCell>
                <mxCell id="216" value="" style="triangle;whiteSpace=wrap;html=1;direction=north;" vertex="1" parent="1">
                    <mxGeometry x="510" y="1040" width="60" height="40" as="geometry"/>
                </mxCell>
                <mxCell id="217" value="MEDICAMENTO" style="whiteSpace=wrap;html=1;" vertex="1" parent="1">
                    <mxGeometry x="400" y="1120" width="120" height="40" as="geometry"/>
                </mxCell>
                <mxCell id="218" value="PERFUMARIA" style="whiteSpace=wrap;html=1;" vertex="1" parent="1">
                    <mxGeometry x="560" y="1120" width="120" height="40" as="geometry"/>
                </mxCell>
                <mxCell id="219" value="(0,n)" style="edgeStyle=none;rounded=0;orthogonalLoop=1;jettySize=auto;html=1;endArrow=none;endFill=0;align=left;labelPosition=right;verticalLabelPosition=middle;verticalAlign=middle;spacing=10;" edge="1" source="221" target="217" parent="1">
                    <mxGeometry relative="1" as="geometry"/>
                </mxCell>
                <mxCell id="220" value="(1,n)" style="edgeStyle=none;rounded=0;orthogonalLoop=1;jettySize=auto;html=1;endArrow=none;endFill=0;verticalAlign=top;" edge="1" source="221" target="229" parent="1">
                    <mxGeometry relative="1" as="geometry"/>
                </mxCell>
                <mxCell id="221" value="Distribuidora de&lt;br&gt;Medicamentos" style="shape=associativeEntity;whiteSpace=wrap;html=1;align=center;" vertex="1" parent="1">
                    <mxGeometry x="400" y="1200" width="120" height="80" as="geometry"/>
                </mxCell>
                <mxCell id="222" value="(0,n)" style="edgeStyle=none;rounded=0;orthogonalLoop=1;jettySize=auto;html=1;endArrow=none;endFill=0;align=left;labelPosition=right;verticalLabelPosition=middle;verticalAlign=middle;spacing=10;" edge="1" source="223" target="218" parent="1">
                    <mxGeometry relative="1" as="geometry"/>
                </mxCell>
                <mxCell id="223" value="Abastece" style="rhombus;whiteSpace=wrap;html=1;" vertex="1" parent="1">
                    <mxGeometry x="560" y="1200" width="120" height="80" as="geometry"/>
                </mxCell>
                <mxCell id="224" value="(0,n)" style="edgeStyle=none;rounded=0;orthogonalLoop=1;jettySize=auto;html=1;endArrow=none;endFill=0;spacing=10;align=left;" edge="1" source="225" target="223" parent="1">
                    <mxGeometry relative="1" as="geometry"/>
                </mxCell>
                <mxCell id="225" value="VENDA" style="whiteSpace=wrap;html=1;" vertex="1" parent="1">
                    <mxGeometry x="480" y="1320" width="120" height="40" as="geometry"/>
                </mxCell>
                <mxCell id="226" value="(0,n)" style="edgeStyle=none;rounded=0;orthogonalLoop=1;jettySize=auto;html=1;endArrow=none;endFill=0;labelPosition=left;verticalLabelPosition=middle;align=right;verticalAlign=middle;spacing=10;" edge="1" source="225" target="221" parent="1">
                    <mxGeometry relative="1" as="geometry"/>
                </mxCell>
                <mxCell id="227" value="(0,1)" style="edgeStyle=none;rounded=0;orthogonalLoop=1;jettySize=auto;html=1;endArrow=none;endFill=0;verticalAlign=top;" edge="1" source="228" target="229" parent="1">
                    <mxGeometry relative="1" as="geometry"/>
                </mxCell>
                <mxCell id="228" value="RECEITA&lt;br&gt;MÉDICA" style="whiteSpace=wrap;html=1;" vertex="1" parent="1">
                    <mxGeometry x="120" y="1280" width="120" height="40" as="geometry"/>
                </mxCell>
                <mxCell id="229" value="Farmácia" style="rhombus;whiteSpace=wrap;html=1;" vertex="1" parent="1">
                    <mxGeometry x="280" y="1250" width="80" height="40" as="geometry"/>
                </mxCell>
            </root>
        </mxGraphModel>
    </diagram>
</mxfile>